<?xml version="1.0" standalone="no"?>
<!DOCTYPE svg PUBLIC "-//W3C//DTD SVG 20010904//EN"
 "http://www.w3.org/TR/2001/REC-SVG-20010904/DTD/svg10.dtd">
<svg version="1.0" xmlns="http://www.w3.org/2000/svg"
 width="645.000000pt" height="267.000000pt" viewBox="0 0 645.000000 267.000000"
 preserveAspectRatio="xMidYMid meet">

<g transform="translate(0.000000,267.000000) scale(0.100000,-0.100000)"
fill="#000000" stroke="none">
<path d="M5650 2654 c-179 -38 -356 -178 -439 -344 -161 -327 -40 -724 266
-878 115 -57 207 -76 346 -69 184 8 313 63 437 187 123 124 180 257 188 435 8
203 -46 342 -188 486 -69 70 -101 94 -170 128 -140 68 -292 87 -440 55z m330
-420 l0 -206 83 100 82 101 73 0 c39 1 72 -2 72 -5 0 -4 -37 -47 -82 -98 -45
-50 -90 -101 -101 -113 -19 -21 -18 -21 97 -147 64 -69 116 -128 116 -131 0
-3 -33 -5 -74 -5 l-74 0 -93 110 -94 110 -3 -110 -3 -110 -64 0 -65 0 0 355 0
355 65 0 65 0 0 -206z m-319 -6 c19 -6 46 -20 61 -30 l28 -19 -31 -39 -32 -39
-38 19 c-42 22 -128 27 -160 10 -22 -12 -26 -64 -7 -76 7 -5 50 -13 95 -20 46
-7 100 -21 120 -31 47 -23 76 -73 76 -128 0 -91 -75 -154 -193 -163 l-67 -4 0
56 0 56 46 0 c58 0 91 21 91 59 0 32 -31 51 -82 51 -54 0 -148 32 -178 60 -76
71 -50 183 55 231 47 22 163 26 216 7z m-226 -390 c55 -48 21 -138 -52 -138
-42 0 -83 38 -83 75 0 34 50 85 84 85 14 0 37 -10 51 -22z"/>
<path d="M0 1995 l0 -555 40 0 40 0 0 80 0 79 45 -48 c175 -187 506 -147 619
76 52 104 59 261 16 375 -28 75 -101 156 -173 191 -159 78 -382 39 -475 -82
l-32 -43 0 241 0 241 -40 0 -40 0 0 -555z m535 136 c110 -49 166 -139 173
-281 5 -111 -20 -184 -87 -251 -65 -65 -141 -92 -242 -87 -125 7 -216 66 -269
173 -21 43 -25 64 -25 150 0 89 3 105 27 150 36 68 94 121 164 151 75 31 182
30 259 -5z"/>
<path d="M2550 2309 l0 -241 -32 43 c-93 121 -316 160 -475 82 -71 -35 -145
-116 -172 -189 -44 -116 -37 -273 15 -377 71 -140 238 -217 406 -189 88 15
155 51 213 113 l45 48 0 -79 0 -80 40 0 40 0 0 555 0 555 -40 0 -40 0 0 -241z
m-203 -170 c79 -30 153 -103 183 -184 18 -49 21 -74 18 -140 -10 -179 -122
-293 -297 -303 -196 -11 -331 121 -331 323 0 195 122 322 312 324 35 1 79 -7
115 -20z"/>
<path d="M2840 1995 l0 -555 105 0 105 0 0 205 0 205 275 0 275 0 0 95 0 95
-272 2 -273 3 0 150 0 150 288 3 287 2 0 100 0 100 -395 0 -395 0 0 -555z"/>
<path d="M3780 1995 l0 -555 105 0 105 0 0 185 0 185 99 0 99 0 161 -185 162
-185 125 0 c68 0 124 4 124 8 0 4 -74 92 -165 194 -91 103 -165 189 -165 192
0 4 8 6 18 6 30 0 117 48 157 87 21 20 49 62 64 92 22 49 26 69 26 156 0 89
-3 107 -29 162 -49 108 -153 182 -283 203 -32 6 -181 10 -330 10 l-273 0 0
-555z m620 333 c133 -67 114 -269 -29 -317 -20 -6 -105 -11 -207 -11 l-174 0
0 175 0 175 183 0 c170 0 186 -2 227 -22z"/>
<path d="M4840 1995 l0 -555 105 0 105 0 0 555 0 555 -105 0 -105 0 0 -555z"/>
<path d="M980 1958 c0 -148 5 -279 10 -300 25 -90 118 -182 213 -210 23 -7 81
-12 128 -12 73 0 94 4 142 27 30 15 71 45 91 67 l36 40 0 -65 0 -65 40 0 40 0
0 390 0 390 -40 0 -40 0 0 -243 c0 -285 -6 -314 -80 -387 -74 -75 -183 -99
-294 -66 -68 21 -114 60 -145 125 -26 55 -26 60 -29 314 l-4 257 -34 0 -34 0
0 -262z"/>
<path d="M3651 1072 c-13 -24 -38 -201 -47 -324 -7 -95 -7 -98 -31 -98 -62 0
-113 -56 -113 -125 0 -24 -5 -35 -14 -35 -23 0 -30 19 -30 84 -1 36 -6 61 -13
63 -6 2 -29 -22 -51 -54 -45 -66 -99 -120 -109 -110 -3 4 2 42 11 85 26 111
30 142 17 142 -27 0 -71 -121 -71 -197 0 -97 46 -111 120 -36 l47 48 19 -30
20 -30 102 1 c70 0 102 -3 102 -11 0 -14 48 -60 55 -53 3 3 0 27 -6 54 -11 47
-10 52 19 99 17 28 33 61 37 75 5 23 5 23 -6 5 -17 -28 -51 -65 -61 -65 -14 0
-9 137 12 315 11 94 20 180 20 193 0 27 -16 29 -29 4z m-58 -504 c6 -48 -2
-63 -41 -73 -52 -13 -61 46 -15 97 29 32 50 22 56 -24z"/>
<path d="M2066 1071 c-9 -14 -35 -190 -41 -281 -10 -148 -11 -150 -50 -150
-24 0 -42 -9 -64 -31 -26 -26 -31 -38 -31 -80 0 -53 -7 -60 -34 -30 -12 14
-16 33 -14 72 4 73 -18 77 -60 12 -18 -26 -49 -66 -69 -88 l-38 -39 -3 31 c-2
18 7 69 19 113 22 83 21 97 -6 86 -33 -12 -72 -179 -55 -232 10 -29 16 -34 44
-34 25 0 42 10 75 44 l44 45 21 -32 c20 -30 26 -32 81 -33 33 0 77 2 97 6 31
7 38 5 43 -11 7 -20 55 -62 63 -55 2 3 -3 27 -12 54 l-17 49 36 53 c43 64 46
93 4 45 -17 -19 -35 -35 -39 -35 -11 0 -3 123 21 343 10 97 19 180 19 182 0 9
-29 5 -34 -4z m-56 -511 c0 -54 -19 -74 -63 -68 -33 5 -28 65 8 95 42 37 55
30 55 -27z"/>
<path d="M2560 1028 c-35 -61 -39 -130 -7 -136 11 -2 17 3 17 16 0 11 6 37 14
58 20 60 28 114 17 114 -6 0 -24 -24 -41 -52z"/>
<path d="M2925 953 c23 -318 23 -316 4 -345 -11 -14 -19 -36 -19 -48 0 -34 41
-100 72 -116 36 -18 128 -18 154 1 50 34 70 144 39 205 -30 58 -125 80 -164
39 l-19 -21 -6 54 c-3 29 -9 100 -15 158 -11 110 -26 170 -43 170 -7 0 -8 -32
-3 -97z m194 -307 c59 -63 20 -176 -61 -176 -13 0 -32 6 -42 13 -15 11 -16 20
-7 76 6 35 17 74 26 87 20 31 55 31 84 0z m-172 -83 c-3 -10 -5 -4 -5 12 0 17
2 24 5 18 2 -7 2 -21 0 -30z"/>
<path d="M5087 1013 c-4 -3 -7 -38 -7 -77 l0 -72 -70 -18 c-71 -18 -90 -30
-72 -48 6 -6 31 -5 71 3 34 6 63 10 65 8 3 -2 -2 -57 -10 -122 -8 -65 -13
-162 -12 -215 3 -88 5 -97 22 -97 18 0 19 10 23 135 2 74 9 175 16 225 14 104
17 107 130 125 55 8 73 8 103 -5 50 -21 52 -19 18 16 -29 31 -29 31 -114 26
-47 -3 -93 -8 -102 -12 -16 -6 -18 -1 -18 41 0 79 -17 113 -43 87z"/>
<path d="M1549 988 c0 -7 0 -40 1 -73 l1 -60 -68 -18 c-84 -22 -102 -32 -86
-48 9 -9 27 -9 74 0 34 6 64 9 67 7 2 -3 -4 -71 -13 -153 -9 -81 -15 -177 -13
-213 3 -60 5 -65 27 -68 23 -4 24 -2 17 45 -7 53 19 354 34 391 11 27 39 38
123 52 53 8 67 7 99 -9 44 -22 49 -11 12 26 -25 25 -29 25 -107 20 -45 -3 -92
-9 -104 -13 -22 -6 -23 -4 -23 60 0 59 -2 66 -20 66 -11 0 -20 -6 -21 -12z"/>
<path d="M3924 913 c-20 -38 -55 -94 -78 -125 -41 -60 -43 -75 -7 -63 45 14
161 205 147 240 -10 27 -24 15 -62 -52z"/>
<path d="M5390 972 c0 -5 7 -23 16 -41 15 -30 15 -36 -6 -92 -13 -33 -20 -62
-17 -65 12 -13 46 18 61 56 20 51 20 99 0 128 -15 21 -54 31 -54 14z"/>
<path d="M1283 774 c-16 -17 -33 -24 -58 -24 -25 0 -35 -4 -32 -12 7 -20 93
-15 117 7 22 20 27 56 8 54 -7 -1 -23 -12 -35 -25z"/>
<path d="M4277 776 c-3 -8 -11 -70 -17 -138 -7 -68 -17 -126 -24 -130 -23 -15
-118 -30 -125 -20 -3 5 -19 10 -34 10 -37 -1 -41 5 -33 45 14 77 83 136 126
109 17 -10 20 -10 20 6 0 55 -95 57 -138 3 -30 -38 -52 -93 -52 -131 0 -36 -3
-40 -24 -40 -34 0 -41 15 -41 85 0 72 -20 85 -49 31 -26 -49 -112 -143 -122
-133 -5 4 0 45 10 90 30 135 30 140 15 135 -26 -8 -62 -96 -67 -167 -8 -123
35 -146 116 -63 l47 48 20 -30 c18 -27 27 -31 75 -34 30 -2 81 -6 112 -9 52
-4 63 -2 108 26 l50 31 0 -55 c0 -41 4 -57 16 -62 25 -9 35 10 70 129 18 62
34 111 35 108 0 -3 7 -42 14 -87 17 -109 50 -177 88 -181 29 -3 67 21 67 42 0
6 -5 5 -12 -2 -47 -47 -89 35 -108 206 -9 87 -20 112 -50 112 -16 0 -33 -29
-59 -105 -8 -23 -9 -4 -5 78 6 91 4 107 -9 107 -8 0 -17 -6 -20 -14z"/>
<path d="M2541 736 c-16 -19 -12 -41 71 -379 52 -214 67 -292 59 -300 -25 -25
-160 4 -253 54 -22 12 -22 12 -3 20 11 4 38 8 60 9 l40 2 -37 7 c-20 4 -56 5
-80 2 -38 -5 -43 -9 -43 -31 0 -21 12 -31 77 -64 95 -47 206 -67 253 -45 52
25 50 43 -54 459 -28 113 -53 222 -56 243 -6 39 -15 46 -34 23z"/>
<path d="M4768 715 c-21 -12 -28 -23 -28 -45 0 -29 18 -51 105 -124 25 -20 28
-28 19 -43 -13 -21 -52 -29 -67 -14 -18 18 -29 13 -25 -11 2 -12 15 -29 29
-37 23 -13 30 -12 65 5 35 17 39 23 42 60 3 39 0 44 -57 94 -34 28 -61 58 -61
65 0 14 22 25 52 25 13 0 18 6 16 18 -4 23 -54 26 -90 7z"/>
<path d="M1307 700 c-42 -33 -34 -55 45 -130 62 -59 70 -71 59 -84 -16 -19
-67 -21 -74 -3 -3 9 -8 9 -17 1 -16 -15 2 -50 30 -59 28 -9 88 12 100 35 23
43 12 69 -57 135 -56 53 -65 67 -53 75 8 5 28 10 43 10 22 0 28 4 25 18 -5 27
-68 28 -101 2z"/>
<path d="M4574 670 c-85 -62 -126 -158 -85 -199 28 -28 104 -29 145 -2 59 39
84 113 52 157 -9 12 -11 23 -5 30 5 6 7 19 3 28 -10 26 -65 20 -110 -14z m76
-76 c13 -32 -1 -59 -43 -84 -43 -27 -87 -27 -87 0 0 32 22 73 32 58 5 -9 8 -7
8 6 0 11 10 30 21 42 26 27 54 18 69 -22z"/>
<path d="M2228 678 c-20 -16 -47 -97 -55 -165 -4 -40 -2 -58 11 -78 25 -38 55
-32 110 24 l49 50 16 -32 c14 -28 22 -32 59 -35 40 -3 136 21 146 36 2 4 -29
6 -70 4 -94 -4 -106 4 -104 72 2 28 2 57 1 64 -2 25 -29 11 -56 -30 -40 -60
-96 -128 -106 -128 -15 0 -10 72 10 145 20 72 17 95 -11 73z"/>
</g>
</svg>
