<svg id="Layer_1" data-name="Layer 1" xmlns="http://www.w3.org/2000/svg" viewBox="0 0 293.47 129.42"><defs><style>.cls-1{fill:#fff;}</style></defs><path class="cls-1" d="M154.85,58.86a5.47,5.47,0,0,0,2.65.55,5.57,5.57,0,0,0,2.64-.54,3.27,3.27,0,0,0,1.47-1.54,5.9,5.9,0,0,0,.46-2.42V47.39h-2V55a3.26,3.26,0,0,1-.31,1.52,2,2,0,0,1-.89.88,3,3,0,0,1-1.35.28,2.5,2.5,0,0,1-1.83-.65,2.69,2.69,0,0,1-.68-2V47.39h-2V54.8a6.22,6.22,0,0,0,.45,2.49A3.21,3.21,0,0,0,154.85,58.86Z"/><polygon class="cls-1" points="172.41 55.86 166.61 47.38 164.66 47.38 164.66 59.24 166.65 59.24 166.65 50.54 172.61 59.24 174.41 59.24 174.41 47.38 172.41 47.38 172.41 55.86"/><polygon class="cls-1" points="179.16 47.38 177.17 47.38 177.17 59.24 179.16 59.24 179.16 51.79 179.16 47.38"/><polygon class="cls-1" points="186.11 56.94 182.79 47.38 180.86 47.38 184.96 59.24 187.27 59.24 191.41 47.38 189.48 47.38 186.11 56.94"/><polygon class="cls-1" points="195.11 54.11 200.27 54.11 200.27 52.42 195.13 52.42 195.13 49.1 200.95 49.1 200.96 47.38 193.12 47.38 193.12 59.24 201.07 59.24 201.07 57.51 195.11 57.51 195.11 54.11"/><path class="cls-1" d="M210,59.24h2.09l-2.27-5.15a4.69,4.69,0,0,0,1.06-.66,3,3,0,0,0,.81-1,3.61,3.61,0,0,0,.31-1.59,3.64,3.64,0,0,0-.42-1.79,2.93,2.93,0,0,0-1.31-1.19,5.24,5.24,0,0,0-2.24-.42h-4.82V59.24h2V54.43h2.76Zm-4.8-6.39V48.94h2.63a2.37,2.37,0,0,1,1.56.5,1.78,1.78,0,0,1,.59,1.42,1.81,1.81,0,0,1-.64,1.46,2.69,2.69,0,0,1-1.77.53Z"/><path class="cls-1" d="M222.48,57.77a2.71,2.71,0,0,0,.57-1.68,4.56,4.56,0,0,0-.11-1,3.11,3.11,0,0,0-.42-1,3,3,0,0,0-.93-.89,4.39,4.39,0,0,0-1.6-.59l-2.13-.48a3.17,3.17,0,0,1-1.43-.6,1.2,1.2,0,0,1-.38-.93,1.53,1.53,0,0,1,.17-.72,1.71,1.71,0,0,1,.5-.54,2.14,2.14,0,0,1,.75-.33,3.34,3.34,0,0,1,.91-.12,3.78,3.78,0,0,1,1.2.18,1.91,1.91,0,0,1,.89.6,2,2,0,0,1,.42,1.12h2a3.16,3.16,0,0,0-.53-1.76,3.55,3.55,0,0,0-1.53-1.28,5.82,5.82,0,0,0-2.49-.48,5.43,5.43,0,0,0-2.26.44,3.7,3.7,0,0,0-1.58,1.23,3,3,0,0,0-.57,1.88,2.88,2.88,0,0,0,.78,2.07,4,4,0,0,0,2.1,1l2.18.48a4.88,4.88,0,0,1,1.06.35,1.91,1.91,0,0,1,.71.55,1.45,1.45,0,0,1-.09,1.75,2.24,2.24,0,0,1-.95.57,4.27,4.27,0,0,1-1.33.2,3.49,3.49,0,0,1-1.27-.22,2.45,2.45,0,0,1-1-.62,2.08,2.08,0,0,1-.52-1H213.6a3.15,3.15,0,0,0,.54,1.51,3.66,3.66,0,0,0,1.11,1.07,5.14,5.14,0,0,0,1.49.65,6.67,6.67,0,0,0,1.68.22,6.31,6.31,0,0,0,2.45-.44A3.72,3.72,0,0,0,222.48,57.77Z"/><polygon class="cls-1" points="227.3 47.38 225.3 47.38 225.3 59.24 227.3 59.24 227.3 50.9 227.3 47.38"/><polygon class="cls-1" points="229 49.18 232.69 49.18 232.69 59.24 234.69 59.24 234.69 49.18 238.25 49.18 238.25 47.38 229 47.38 229 49.18"/><polygon class="cls-1" points="247.28 47.38 244.4 52.49 241.47 47.38 239.31 47.38 243.39 54.23 243.39 59.24 245.38 59.24 245.38 54.23 249.46 47.38 247.28 47.38"/><path class="cls-1" d="M160.47,67.63a5.28,5.28,0,0,0-2.8-.73,5.38,5.38,0,0,0-2.82.73,4.8,4.8,0,0,0-1.85,2.1,8.52,8.52,0,0,0,0,6.55,4.78,4.78,0,0,0,1.85,2.09,5.36,5.36,0,0,0,2.83.72,5.23,5.23,0,0,0,2.81-.73,4.6,4.6,0,0,0,1.83-2.08,8.64,8.64,0,0,0,0-6.55A4.83,4.83,0,0,0,160.47,67.63Zm-.06,7.91A2.85,2.85,0,0,1,159.34,77,3.26,3.26,0,0,1,156,77a2.87,2.87,0,0,1-1.09-1.42,6.93,6.93,0,0,1-.38-2.49,7.23,7.23,0,0,1,.38-2.54A3,3,0,0,1,156,69.05a2.88,2.88,0,0,1,1.67-.47,2.69,2.69,0,0,1,2.73,1.92,8.65,8.65,0,0,1,0,5Z"/><polygon class="cls-1" points="165.18 78.92 167.2 78.92 167.2 73.83 172.26 73.83 172.26 72.17 167.2 72.17 167.2 68.76 172.93 68.76 172.94 67.07 165.18 67.07 165.18 78.92"/><polygon class="cls-1" points="178.25 68.77 184.14 68.77 177.91 77.91 177.91 78.93 186.91 78.93 186.91 77.21 180.66 77.21 186.97 68.03 186.97 67.07 178.25 67.07 178.25 68.77"/><polygon class="cls-1" points="185.47 64.07 183.8 64.07 182.69 65.25 181.47 64.07 179.88 64.07 182 66.08 183.4 66.08 185.47 64.07"/><polygon class="cls-1" points="188.86 78.93 190.86 78.93 190.86 71.59 190.86 67.07 188.86 67.07 188.86 78.93"/><polygon class="cls-1" points="195.64 67.07 193.62 67.07 193.61 78.92 200.99 78.92 200.99 77.2 195.64 77.2 195.64 67.07"/><polygon class="cls-1" points="202.86 78.93 204.85 78.93 204.85 70.89 204.85 67.07 202.86 67.07 202.86 78.93"/><polygon class="cls-1" points="215.37 75.54 209.56 67.07 207.61 67.07 207.61 78.92 209.6 78.92 209.6 70.22 215.57 78.92 217.36 78.92 217.36 67.07 215.37 67.07 215.37 75.54"/><path class="cls-1" d="M223.44,67.07l-4.26,11.86h2l1.08-3h4.53l1.06,3h2L225.6,67.07Zm-.71,7.11,1.8-5.17,1.78,5.17Z"/><rect class="cls-1" x="132.53" y="33.21" width="1.15" height="60.44"/><path class="cls-1" d="M112.48,80.32c-16.13-12.59-12.35-26.72-9.58-37l0-.19c1-3.67,1.84-6.84,1.62-9.43a6.44,6.44,0,0,0-2.12-4.39A4.83,4.83,0,0,0,98.84,28a6.93,6.93,0,0,0-2.88.81c-23,11.71-36.44,11.05-44.47,10.66l-.27,0c-3.21-.15-7.6-.37-9.7,1.63A3.77,3.77,0,0,0,40.36,44c0,1.54,1.78,3.65,2,3.88,11.4,13.71,11.87,34.29,12,42a26.68,26.68,0,0,0,.15,3,7.17,7.17,0,0,0,11.88,4.21c9.71-9,24.11-9.63,34.71-10.09a57,57,0,0,0,10.08-1l.27-.08a3.2,3.2,0,0,0,2.31-3.05A3.16,3.16,0,0,0,112.48,80.32Zm-9-46.52c.19,2.35-.63,5.44-1.59,9l0,.19c-1.83,6.81-4.06,15.24-1,23.86a66.37,66.37,0,0,0-13.6-13.29c12-13.62,14.5-20.34,15-23A5.37,5.37,0,0,1,103.43,33.8Zm-7-3.94a5.77,5.77,0,0,1,2.44-.68,3.69,3.69,0,0,1,2.15.52c0,1.22-1,7.53-14.84,23.18A74,74,0,0,0,69.35,44,76.91,76.91,0,0,0,58,40.81C66.33,40.69,78.52,39,96.48,29.86ZM43.21,47.09c-.65-.76-1.7-2.29-1.7-3.13a2.62,2.62,0,0,1,.8-2c1.21-1.15,3.63-1.4,5.94-1.4,1,0,2,.05,2.92.09h.11A73.79,73.79,0,0,1,85.77,53.4c-2.58,2.9-5.58,6.1-9.11,9.66a84.2,84.2,0,0,0-7.92,9.17,132.29,132.29,0,0,1-23.38-22.3C44.69,49,44,48,43.21,47.09ZM55.66,92.64c-.07-.38-.1-1.44-.13-2.79-.15-6.67-.54-22.75-7.82-36a127.54,127.54,0,0,0,20.6,19c-9.22,12.7-9.17,21.71-8.84,24.55A6,6,0,0,1,55.66,92.64Zm10,3.59a6.05,6.05,0,0,1-4,1.53,7.3,7.3,0,0,1-.94-.08c-.27-1.82-1-11,8.58-24.19Q84.53,84.23,99.84,85.87C89.26,86.35,75.29,87.26,65.62,96.23Zm45.53-11.4-.2.06a21.84,21.84,0,0,1-2.58.44C95.52,86.11,82.59,82,69.69,72.91a80.62,80.62,0,0,1,7.79-9c3.57-3.61,6.61-6.85,9.23-9.79A65.16,65.16,0,0,1,102.12,70a33.86,33.86,0,0,0,9.71,11.3,2,2,0,0,1,.8,1.61A2,2,0,0,1,111.15,84.83Z"/></svg>